<svg xmlns="http://www.w3.org/2000/svg" width="192.808" height="19.032">
  <g fill="currentColor" data-name="sitelogo">
    <path d="M94 12.168c0 4.176 2.736 6.864 6.576 6.864a6.065 6.065 0 0 0 6.264-4.7h-3.624a2.536 2.536 0 0 1-2.664 1.82c-1.872 0-3.12-1.392-3.12-3.984s1.248-4.008 3.12-4.008a2.612 2.612 0 0 1 2.664 1.848h3.624c-.72-2.976-2.952-4.7-6.264-4.7C96.736 5.304 94 7.992 94 12.168Zm18.672.024c0-2.568 1.2-3.336 3.192-3.336h.888V5.328a4.611 4.611 0 0 0-4.08 2.256V5.516h-3.364v13.3h3.36Zm12.048-4.128a2.954 2.954 0 0 1 3.168 2.852h-6.312a3.088 3.088 0 0 1 3.144-2.852Zm6.312 6.576h-3.624a2.74 2.74 0 0 1-2.664 1.608 3.111 3.111 0 0 1-3.192-3.072h9.72a7.853 7.853 0 0 0 .1-1.3A6.242 6.242 0 0 0 124.82 5.3c-3.936 0-6.672 2.664-6.672 6.864 0 4.176 2.808 6.864 6.672 6.864a6.18 6.18 0 0 0 6.212-4.388Zm1.92-2.52c0 4.152 2.688 6.912 6.048 6.912a5.244 5.244 0 0 0 4.416-2.16v1.944h3.384v-13.3h-3.384v1.9a5.258 5.258 0 0 0-4.392-2.112c-3.384 0-6.072 2.664-6.072 6.812Zm10.464.048a3.58 3.58 0 0 1-3.528 3.912 3.633 3.633 0 0 1-3.5-3.96 3.546 3.546 0 0 1 3.5-3.864 3.58 3.58 0 0 1 3.528 3.912Zm7.2 2.52c0 3.048 1.704 4.128 4.248 4.128h2.112v-2.832h-1.56c-1.056 0-1.416-.384-1.416-1.272V8.28h2.976V5.516H154V2.228h-3.384v3.288h-1.584v2.76h1.584Zm8.784 4.128h3.36v-13.3h-3.36Zm1.7-14.88a1.985 1.985 0 0 0 2.064-1.968A1.985 1.985 0 0 0 161.108 0a1.97 1.97 0 0 0-2.064 1.968 1.97 1.97 0 0 0 2.064 1.968Zm3.556 1.58 4.896 13.3h4.08l4.92-13.3h-3.576l-3.36 10.2-3.36-10.2Zm21.5 2.544a2.954 2.954 0 0 1 3.172 2.856h-6.312a3.088 3.088 0 0 1 3.144-2.852Zm6.312 6.576h-3.62a2.74 2.74 0 0 1-2.664 1.608 3.111 3.111 0 0 1-3.192-3.068h9.716a7.853 7.853 0 0 0 .1-1.3 6.242 6.242 0 0 0-6.552-6.576c-3.936 0-6.672 2.664-6.672 6.864 0 4.176 2.808 6.864 6.672 6.864a6.18 6.18 0 0 0 6.216-4.388Z" data-name="Path 1"/>
    <path d="M0 12.116c0 4.156 2.688 6.916 6.048 6.916a5.244 5.244 0 0 0 4.416-2.16v1.944h3.384v-13.3h-3.384v1.9a5.258 5.258 0 0 0-4.392-2.112C2.688 5.304 0 7.968 0 12.116Zm10.464.048a3.58 3.58 0 0 1-3.528 3.916 3.633 3.633 0 0 1-3.5-3.96 3.546 3.546 0 0 1 3.5-3.864 3.58 3.58 0 0 1 3.528 3.912Zm10.032.024c0-2.568 1.2-3.336 3.192-3.336h.888V5.324a4.611 4.611 0 0 0-4.08 2.256V5.516h-3.36v13.3h3.36Zm6.864 2.5c0 3.048 1.704 4.128 4.248 4.128h2.112v-2.832h-1.56c-1.056 0-1.416-.384-1.416-1.272V8.28h2.976V5.516h-2.976V2.228H27.36v3.288h-1.584v2.76h1.584Zm7.92-2.572c0 4.152 2.688 6.912 6.048 6.912a5.244 5.244 0 0 0 4.416-2.16v1.948h3.384v-13.3h-3.384v1.9a5.258 5.258 0 0 0-4.392-2.112c-3.384 0-6.072 2.664-6.072 6.812Zm10.464.048a3.58 3.58 0 0 1-3.528 3.912 3.633 3.633 0 0 1-3.508-3.96 3.546 3.546 0 0 1 3.5-3.864 3.58 3.58 0 0 1 3.536 3.916Zm16.992 2.86c-.1-4.872-7.464-3.36-7.464-5.784 0-.768.648-1.272 1.9-1.272A1.981 1.981 0 0 1 59.4 9.696h3.216c-.192-2.64-2.136-4.392-5.352-4.392-3.288 0-5.256 1.776-5.256 3.984 0 4.872 7.512 3.36 7.512 5.736 0 .768-.72 1.368-2.04 1.368a2.207 2.207 0 0 1-2.4-1.776h-3.384c.144 2.472 2.472 4.416 5.812 4.416 3.236 0 5.228-1.728 5.228-4.008Zm1.9-2.856c-.004 4.176 2.732 6.864 6.572 6.864a6.065 6.065 0 0 0 6.264-4.7h-3.624a2.536 2.536 0 0 1-2.664 1.824c-1.872 0-3.12-1.392-3.12-3.984s1.248-4.008 3.12-4.008a2.612 2.612 0 0 1 2.664 1.844h3.624c-.72-2.976-2.952-4.7-6.264-4.7-3.84-.004-6.576 2.684-6.576 6.86Zm21.024-4.1a2.954 2.954 0 0 1 3.164 2.848h-6.316a3.088 3.088 0 0 1 3.148-2.852Zm6.308 6.572h-3.624a2.74 2.74 0 0 1-2.664 1.608 3.111 3.111 0 0 1-3.192-3.072h9.72a7.853 7.853 0 0 0 .1-1.3A6.242 6.242 0 0 0 85.756 5.3c-3.936 0-6.672 2.664-6.672 6.864 0 4.176 2.808 6.864 6.672 6.864a6.18 6.18 0 0 0 6.212-4.388Z" data-name="Path 2" opacity=".60"/>
  </g>
</svg>